<svg width="1518" height="365" viewBox="0 0 1518 365" fill="none" xmlns="http://www.w3.org/2000/svg">
<path d="M361.421 273.955C352.297 273.955 343.918 273.117 336.284 271.441C328.836 269.579 322.878 267.531 318.409 265.297C313.754 263.062 309.192 259.711 304.724 255.242C302.489 253.008 300.441 250.867 298.579 248.818C296.717 246.77 294.669 244.257 292.435 241.277C290.386 238.112 287.687 234.016 284.335 228.988C280.983 223.775 276.608 216.885 271.208 208.32C263.946 197.335 259.105 191.376 256.685 190.445C256.312 190.259 255.288 190.166 253.612 190.166C251.937 190.166 251.099 191.656 251.099 194.635V232.619C251.099 242.488 251.75 250.122 253.054 255.521C253.426 257.011 255.009 258.314 257.802 259.432C260.595 260.549 263.667 261.387 267.019 261.945C270.37 262.504 272.977 262.783 274.839 262.783C275.584 262.783 275.956 264.552 275.956 268.09C275.956 269.952 275.77 271.628 275.397 273.117C264.226 272.559 255.102 272.093 248.026 271.721C240.951 271.348 235.83 271.255 232.665 271.441L191.888 273.117C191.143 272.372 190.771 270.79 190.771 268.369C190.771 264.645 191.143 262.783 191.888 262.783C193.377 262.783 195.519 262.504 198.312 261.945C201.104 261.387 203.711 260.642 206.132 259.711C208.552 258.594 209.949 257.57 210.321 256.639C211.438 252.356 211.997 244.163 211.997 232.061V126.486C211.997 116.059 211.438 108.798 210.321 104.701C209.949 103.584 208.459 102.467 205.853 101.35C203.432 100.046 200.825 99.0221 198.032 98.2773C195.239 97.3464 193.098 96.8809 191.608 96.8809C190.864 96.8809 190.491 95.2051 190.491 91.8535C190.491 88.8743 190.771 87.1055 191.329 86.5469C199.894 86.9193 207.528 87.2917 214.231 87.6641C221.121 87.8503 227.172 87.9434 232.386 87.9434C241.323 87.7572 248.306 87.6641 253.333 87.6641C258.36 87.6641 262.177 87.6641 264.784 87.6641C267.391 87.6641 269.625 87.6641 271.487 87.6641C278.935 87.6641 286.383 88.5951 293.831 90.457C301.465 92.319 308.448 95.2051 314.778 99.1152C321.109 102.839 326.136 107.68 329.86 113.639C333.771 119.411 335.726 126.393 335.726 134.586C335.726 142.779 334.05 150.413 330.698 157.488C327.347 164.564 322.971 170.522 317.571 175.363C312.358 180.204 306.958 183.556 301.372 185.418C299.882 185.977 299.603 187.001 300.534 188.49C304.631 195.38 307.796 200.593 310.03 204.131C312.265 207.669 314.127 210.555 315.616 212.789C317.292 214.837 319.247 217.444 321.481 220.609C323.716 223.589 326.881 228.15 330.978 234.295C334.143 238.764 337.867 243.232 342.149 247.701C346.618 251.984 351.366 255.615 356.394 258.594C361.607 261.387 366.541 262.783 371.196 262.783C371.941 263.528 372.313 265.204 372.313 267.811C372.313 270.045 371.941 271.907 371.196 273.396C369.893 273.583 368.403 273.676 366.728 273.676C365.238 273.862 363.469 273.955 361.421 273.955ZM262.829 174.805H270.37C277.632 174.805 283.218 171.639 287.128 165.309C291.224 158.978 293.272 150.599 293.272 140.172C293.272 115.408 284.614 103.025 267.298 103.025C260.781 103.025 256.498 103.77 254.45 105.26C252.216 106.936 251.099 116.059 251.099 132.631V162.795C251.099 168.008 252.123 171.36 254.171 172.85C256.405 174.153 259.291 174.805 262.829 174.805ZM440.741 273.955C429.383 273.955 418.863 271.069 409.181 265.297C399.685 259.525 392.05 251.798 386.278 242.115C380.692 232.433 377.899 221.82 377.899 210.275C377.899 198.359 380.413 187.652 385.44 178.156C390.654 168.66 397.823 161.119 406.946 155.533C416.07 149.947 426.59 147.154 438.507 147.154C450.237 147.154 460.199 149.947 468.392 155.533C476.771 160.933 483.101 167.729 487.384 175.922C491.853 183.928 494.087 192.028 494.087 200.221C494.087 204.503 493.156 207.296 491.294 208.6C489.618 209.903 486.174 210.555 480.96 210.555H417.839C416.722 210.555 416.163 211.206 416.163 212.51C416.163 219.213 417.373 225.544 419.794 231.502C422.401 237.46 426.125 242.301 430.966 246.025C435.993 249.749 442.045 251.611 449.12 251.611C455.451 251.611 461.316 250.68 466.716 248.818C470.44 247.701 473.326 246.677 475.374 245.746C477.422 244.815 479.284 243.791 480.96 242.674C482.822 241.37 484.963 239.788 487.384 237.926C489.06 238.671 489.897 240.439 489.897 243.232C489.897 245.653 489.525 247.515 488.78 248.818C487.663 251.798 484.684 255.242 479.843 259.152C475.188 263.062 469.416 266.507 462.526 269.486C455.823 272.465 448.562 273.955 440.741 273.955ZM418.118 195.193H453.589C456.196 195.193 457.499 193.424 457.499 189.887C457.499 182.811 455.544 176.48 451.634 170.895C447.91 165.309 443.069 162.516 437.11 162.516C431.711 162.516 427.428 164.471 424.263 168.381C421.284 172.105 419.142 176.294 417.839 180.949C416.722 185.604 416.163 189.421 416.163 192.4C416.163 194.262 416.815 195.193 418.118 195.193ZM510.286 332.887C509.541 332.142 509.169 330.28 509.169 327.301C509.169 324.135 509.541 322.553 510.286 322.553C511.776 322.553 513.917 322.087 516.71 321.156C519.503 320.411 522.11 319.48 524.53 318.363C526.951 317.246 528.254 316.315 528.44 315.57C529.744 310.357 530.396 303.281 530.396 294.344V196.311C530.396 185.883 528.72 178.901 525.368 175.363C523.879 173.501 521.83 172.198 519.224 171.453C516.803 170.708 514.662 170.243 512.8 170.057C510.938 169.684 510.007 169.312 510.007 168.939C510.007 162.423 510.472 159.164 511.403 159.164C517.175 159.164 523.785 158.512 531.233 157.209C538.681 155.719 547.06 153.671 556.37 151.064C561.956 149.202 565.028 148.271 565.587 148.271C566.704 148.271 567.263 149.482 567.263 151.902C567.263 152.461 567.17 153.206 566.983 154.137C566.983 154.882 566.89 155.812 566.704 156.93C574.711 150.599 583.276 147.434 592.399 147.434C604.316 147.434 614.836 150.32 623.96 156.092C633.27 161.678 640.532 169.126 645.745 178.436C651.145 187.745 653.845 197.8 653.845 208.6C653.845 222.378 650.772 234.202 644.628 244.07C638.67 253.753 630.384 261.201 619.771 266.414C609.343 271.628 597.427 274.234 584.021 274.234C579.552 274.234 575.828 273.769 572.849 272.838C569.869 272.093 568.194 271.721 567.821 271.721C567.076 271.721 566.704 273.21 566.704 276.189V290.154C566.704 302.443 567.356 310.915 568.659 315.57C569.032 316.315 570.428 317.246 572.849 318.363C575.269 319.48 577.783 320.411 580.39 321.156C583.183 322.087 585.138 322.553 586.255 322.553C586.627 322.553 586.907 323.298 587.093 324.787C587.279 326.277 587.372 327.859 587.372 329.535C587.372 331.211 587.186 332.328 586.813 332.887C585.696 332.887 583.555 332.701 580.39 332.328C577.224 332.142 573.5 331.863 569.218 331.49C565.121 331.304 561.211 331.118 557.487 330.932C553.763 330.745 550.784 330.652 548.55 330.652C546.315 330.652 543.243 330.745 539.333 330.932C535.609 331.118 531.699 331.304 527.603 331.49C523.506 331.863 519.875 332.142 516.71 332.328C513.545 332.701 511.403 332.887 510.286 332.887ZM588.489 259.152C605.247 259.152 613.626 245.374 613.626 217.816C613.626 181.694 605.154 163.633 588.21 163.633C581.693 163.633 576.479 165.588 572.569 169.498C568.659 173.408 566.704 178.342 566.704 184.301V237.088C566.704 244.163 569.032 249.656 573.687 253.566C578.341 257.29 583.276 259.152 588.489 259.152ZM733.724 273.955C721.621 273.955 710.542 271.162 700.487 265.576C690.619 259.804 682.705 252.17 676.747 242.674C670.975 232.992 668.089 222.285 668.089 210.555C668.089 198.638 670.975 187.932 676.747 178.436C682.705 168.939 690.619 161.398 700.487 155.812C710.542 150.04 721.621 147.154 733.724 147.154C746.013 147.154 757.091 150.04 766.96 155.812C776.828 161.398 784.649 168.939 790.421 178.436C796.379 187.932 799.358 198.638 799.358 210.555C799.358 222.285 796.472 232.992 790.7 242.674C784.928 252.17 777.015 259.804 766.96 265.576C757.091 271.162 746.013 273.955 733.724 273.955ZM736.517 258.594C741.73 258.594 746.013 256.825 749.364 253.287C752.716 249.749 755.136 245.094 756.626 239.322C758.302 233.364 759.14 227.033 759.14 220.33C759.14 181.787 749.364 162.516 729.813 162.516C724.6 162.516 720.317 164.378 716.966 168.102C713.8 171.826 711.473 176.667 709.983 182.625C708.494 188.583 707.749 195.007 707.749 201.896C707.749 239.695 717.338 258.594 736.517 258.594Z" fill="white"/>
<path d="M815.278 273.117C814.534 272.372 814.161 270.79 814.161 268.369C814.161 264.645 814.347 262.783 814.72 262.783C816.209 262.783 818.351 262.504 821.144 261.945C824.123 261.201 826.823 260.27 829.243 259.152C831.664 258.035 833.06 257.011 833.433 256.08C834.736 251.425 835.388 243.884 835.388 233.457V126.766C835.388 115.035 834.736 107.773 833.433 104.98C832.874 103.491 831.384 102.188 828.964 101.07C826.729 99.9531 824.309 99.1152 821.702 98.5566C819.282 97.8118 817.326 97.4395 815.837 97.4395C815.092 97.4395 814.72 95.5775 814.72 91.8535C814.72 89.0605 814.906 87.4779 815.278 87.1055L854.101 88.7812C856.521 88.9674 861.083 88.8743 867.786 88.502C874.675 88.1296 883.706 87.6641 894.878 87.1055C895.437 87.8503 895.716 89.8053 895.716 92.9707C895.716 95.9499 895.343 97.4395 894.599 97.4395C893.481 97.4395 891.526 97.8118 888.733 98.5566C886.127 99.3014 883.52 100.232 880.913 101.35C878.493 102.281 877.096 103.212 876.724 104.143C875.234 108.239 874.489 116.152 874.489 127.883V167.543L875.048 168.381L908.563 168.939C911.17 168.939 915.174 168.939 920.573 168.939C925.973 168.753 932.862 168.567 941.241 168.381C941.614 168.008 941.8 167.636 941.8 167.264V126.766C941.8 116.711 941.148 109.356 939.845 104.701C939.472 103.584 938.076 102.467 935.655 101.35C933.421 100.232 931 99.3014 928.394 98.5566C925.787 97.8118 923.739 97.4395 922.249 97.4395C921.877 97.4395 921.504 96.6947 921.132 95.2051C920.946 93.7155 920.946 92.1328 921.132 90.457C921.318 88.5951 921.597 87.4779 921.97 87.1055L963.585 88.7812C966.378 88.7812 978.946 88.2227 1001.29 87.1055C1001.85 88.7812 1002.13 90.457 1002.13 92.1328C1002.13 95.6706 1001.66 97.4395 1000.73 97.4395C999.614 97.4395 997.659 97.8118 994.866 98.5566C992.259 99.3014 989.746 100.232 987.325 101.35C984.905 102.281 983.508 103.212 983.136 104.143C982.391 106.936 981.832 110.287 981.46 114.197C981.088 118.107 980.901 122.669 980.901 127.883V232.34C980.901 237.367 981.088 241.836 981.46 245.746C981.832 249.656 982.391 253.101 983.136 256.08C983.508 256.825 984.812 257.756 987.046 258.873C989.466 259.804 991.98 260.642 994.587 261.387C997.38 262.132 999.335 262.504 1000.45 262.504C1001.2 262.504 1001.57 264.459 1001.57 268.369C1001.57 269.859 1001.29 271.441 1000.73 273.117C999.987 273.117 998.218 273.024 995.425 272.838C992.632 272.652 988.908 272.372 984.253 272C979.598 271.628 975.502 271.348 971.964 271.162C968.426 270.976 965.447 270.883 963.026 270.883C960.606 270.883 957.254 270.976 952.972 271.162C948.875 271.348 944.593 271.628 940.124 272C935.841 272.186 931.931 272.372 928.394 272.559C924.856 272.931 922.528 273.117 921.411 273.117C921.039 272.559 920.759 271.441 920.573 269.766C920.387 268.09 920.387 266.507 920.573 265.018C920.946 263.528 921.318 262.783 921.69 262.783C923.18 262.783 925.321 262.411 928.114 261.666C930.907 260.921 933.514 259.99 935.935 258.873C938.355 257.57 939.752 256.452 940.124 255.521C941.241 251.239 941.8 243.884 941.8 233.457V186.814L941.241 185.697L908.563 185.139C885.475 185.325 873.931 185.604 873.931 185.977L874.489 186.535V232.34C874.489 237.181 874.675 241.557 875.048 245.467C875.42 249.377 875.979 252.822 876.724 255.801C877.096 256.546 878.399 257.477 880.634 258.594C883.054 259.711 885.568 260.735 888.175 261.666C890.968 262.411 892.923 262.783 894.04 262.783C894.785 262.783 895.157 264.18 895.157 266.973C895.343 269.766 895.157 271.814 894.599 273.117C885.475 272.559 877.748 272.093 871.417 271.721C865.272 271.162 859.687 270.883 854.659 270.883C848.515 270.883 842.277 271.162 835.946 271.721C829.802 272.093 822.912 272.559 815.278 273.117ZM1117.76 273.396C1116.64 273.396 1116.08 271.721 1116.08 268.369V258.035C1116.08 256.546 1115.71 256.173 1114.96 256.918C1111.05 261.014 1105.28 264.738 1097.65 268.09C1090.2 271.441 1082.1 273.117 1073.35 273.117C1066.09 273.117 1059.66 270.883 1054.08 266.414C1048.68 261.945 1044.49 255.987 1041.51 248.539C1038.53 240.905 1037.04 232.526 1037.04 223.402V196.311C1037.04 185.883 1035.36 178.901 1032.01 175.363C1030.52 173.501 1028.47 172.198 1025.87 171.453C1023.45 170.708 1021.31 170.243 1019.44 170.057C1017.58 169.684 1016.65 169.312 1016.65 168.939C1016.65 162.423 1017.12 159.164 1018.05 159.164C1019.72 159.164 1022.8 158.792 1027.26 158.047C1031.92 157.302 1036.95 156.464 1042.35 155.533C1047.75 154.416 1052.87 153.299 1057.71 152.182C1062.74 150.878 1066.55 149.854 1069.16 149.109C1069.72 148.923 1070.18 148.737 1070.56 148.551C1071.11 148.365 1071.67 148.271 1072.23 148.271C1073.16 148.271 1074.09 148.923 1075.02 150.227C1075.96 151.344 1076.42 152.275 1076.42 153.02C1075.49 161.212 1074.75 167.636 1074.19 172.291C1073.63 176.946 1073.35 179.832 1073.35 180.949V210.834C1073.35 225.357 1075.21 235.598 1078.93 241.557C1082.66 247.329 1088.9 250.215 1097.65 250.215C1103.98 250.215 1108.73 248.818 1111.89 246.025C1115.06 243.046 1116.64 239.788 1116.64 236.25V196.311C1116.64 185.883 1114.96 178.901 1111.61 175.363C1110.12 173.501 1108.07 172.198 1105.47 171.453C1103.05 170.708 1100.91 170.243 1099.04 170.057C1097.18 169.684 1096.25 169.312 1096.25 168.939C1096.25 162.423 1096.72 159.164 1097.65 159.164C1099.32 159.164 1102.4 158.792 1106.86 158.047C1111.52 157.302 1116.55 156.464 1121.95 155.533C1127.35 154.416 1132.47 153.299 1137.31 152.182C1142.33 150.878 1146.15 149.854 1148.76 149.109L1151.83 148.271C1152.76 148.271 1153.69 148.923 1154.62 150.227C1155.56 151.344 1156.02 152.275 1156.02 153.02C1155.09 161.212 1154.34 167.636 1153.79 172.291C1153.23 176.946 1152.95 179.739 1152.95 180.67V235.412C1152.95 245.281 1153.88 251.146 1155.74 253.008C1156.67 253.939 1158.16 254.684 1160.21 255.242C1162.26 255.615 1164.31 255.801 1166.35 255.801H1169.15C1169.89 255.987 1170.26 256.732 1170.26 258.035C1170.26 263.435 1169.71 266.135 1168.59 266.135C1157.04 267.252 1147.36 268.369 1139.54 269.486C1131.91 270.604 1125.95 271.628 1121.67 272.559L1117.76 273.396ZM1211.04 274.514C1210.67 274.514 1209.74 274.048 1208.25 273.117C1206.76 272.372 1205.36 271.441 1204.06 270.324C1202.76 269.207 1202.1 268.369 1202.1 267.811C1202.1 266.693 1202.48 263.342 1203.22 257.756C1203.97 252.17 1204.34 245.001 1204.34 236.25V123.693C1204.34 115.873 1203.78 109.17 1202.66 103.584C1201.92 100.605 1197.08 99.1152 1188.14 99.1152H1185.63C1184.51 99.1152 1183.95 97.2533 1183.95 93.5293C1183.95 90.3639 1184.51 88.7812 1185.63 88.7812C1196.43 87.8503 1206.57 86.2676 1216.07 84.0332C1225.75 81.7988 1232.64 80.0299 1236.74 78.7266L1239.53 77.8887H1240.09C1240.83 77.8887 1241.58 78.4473 1242.32 79.5645C1243.07 80.6816 1243.53 81.7057 1243.72 82.6367C1241.67 91.388 1240.65 100.791 1240.65 110.846V151.623C1240.65 153.485 1240.74 154.695 1240.93 155.254C1241.11 155.626 1241.58 155.626 1242.32 155.254C1249.21 149.854 1257.31 147.154 1266.62 147.154C1277.79 147.154 1288.03 149.947 1297.34 155.533C1306.65 160.933 1314.1 168.288 1319.69 177.598C1325.27 186.908 1328.07 197.335 1328.07 208.879C1328.07 221.168 1325.09 232.247 1319.13 242.115C1313.36 251.984 1305.54 259.804 1295.67 265.576C1285.8 271.348 1274.72 274.234 1262.43 274.234C1255.73 274.234 1250.42 273.769 1246.51 272.838C1242.79 272.093 1239.53 271.348 1236.74 270.604C1233.94 269.673 1230.5 269.207 1226.4 269.207C1223.61 269.207 1220.72 270.138 1217.75 272C1214.77 273.676 1212.53 274.514 1211.04 274.514ZM1263.27 259.152C1271.65 259.152 1277.79 255.428 1281.7 247.98C1285.8 240.346 1287.85 230.385 1287.85 218.096C1287.85 182.16 1279.75 164.191 1263.55 164.191C1256.29 164.191 1250.61 166.24 1246.51 170.336C1242.6 174.432 1240.65 178.715 1240.65 183.184V235.971C1240.65 243.419 1242.79 249.191 1247.07 253.287C1251.35 257.197 1256.75 259.152 1263.27 259.152Z" fill="#2F00BC"/>
</svg>
