<svg width="395" height="120" viewBox="0 0 395 120" fill="none" xmlns="http://www.w3.org/2000/svg">
<path d="M90.4595 89.5264C88.0031 89.5264 85.7472 89.3008 83.6919 88.8496C81.6867 88.3483 80.0825 87.7969 78.8794 87.1953C77.6261 86.5938 76.3979 85.6914 75.1948 84.4883C74.5933 83.8867 74.0418 83.3102 73.5405 82.7588C73.0392 82.2074 72.4878 81.5306 71.8862 80.7285C71.3348 79.8763 70.6079 78.7734 69.7056 77.4199C68.8032 76.0163 67.6252 74.1615 66.1714 71.8555C64.2163 68.8978 62.9129 67.2936 62.2612 67.043C62.161 66.9928 61.8853 66.9678 61.4341 66.9678C60.9829 66.9678 60.7573 67.3688 60.7573 68.1709V78.3975C60.7573 81.0544 60.9328 83.1097 61.2837 84.5635C61.384 84.9645 61.8101 85.3154 62.562 85.6162C63.314 85.917 64.1411 86.1426 65.0435 86.293C65.9458 86.4434 66.6476 86.5186 67.1489 86.5186C67.3494 86.5186 67.4497 86.9948 67.4497 87.9473C67.4497 88.4486 67.3996 88.8997 67.2993 89.3008C64.2915 89.1504 61.8351 89.0251 59.9302 88.9248C58.0252 88.8245 56.6466 88.7995 55.7944 88.8496L44.8159 89.3008C44.6154 89.1003 44.5151 88.6742 44.5151 88.0225C44.5151 87.0199 44.6154 86.5186 44.8159 86.5186C45.217 86.5186 45.7935 86.4434 46.5454 86.293C47.2974 86.1426 47.9992 85.9421 48.6509 85.6914C49.3026 85.3906 49.6785 85.1149 49.7788 84.8643C50.0796 83.7113 50.23 81.5055 50.23 78.2471V49.8232C50.23 47.016 50.0796 45.0609 49.7788 43.958C49.6785 43.6572 49.2775 43.3564 48.5757 43.0557C47.924 42.7048 47.2222 42.429 46.4702 42.2285C45.7183 41.9779 45.1418 41.8525 44.7407 41.8525C44.5402 41.8525 44.4399 41.4014 44.4399 40.499C44.4399 39.6969 44.5151 39.2207 44.6655 39.0703C46.9715 39.1706 49.0269 39.2708 50.8315 39.3711C52.6864 39.4212 54.3156 39.4463 55.7192 39.4463C58.1255 39.3962 60.0054 39.3711 61.3589 39.3711C62.7124 39.3711 63.7401 39.3711 64.4419 39.3711C65.1437 39.3711 65.7453 39.3711 66.2466 39.3711C68.2518 39.3711 70.257 39.6217 72.2622 40.123C74.3175 40.6243 76.1974 41.4014 77.9019 42.4541C79.6063 43.4567 80.9598 44.7601 81.9624 46.3643C83.0151 47.9183 83.5415 49.7982 83.5415 52.0039C83.5415 54.2096 83.0903 56.265 82.188 58.1699C81.2856 60.0749 80.1076 61.679 78.6538 62.9824C77.2502 64.2858 75.7964 65.1882 74.2925 65.6895C73.8914 65.8398 73.8162 66.1156 74.0669 66.5166C75.1698 68.3714 76.022 69.7751 76.6235 70.7275C77.2251 71.68 77.7264 72.457 78.1274 73.0586C78.5786 73.61 79.105 74.3118 79.7065 75.1641C80.3081 75.9661 81.1603 77.1943 82.2632 78.8486C83.1154 80.0518 84.118 81.2549 85.271 82.458C86.4741 83.611 87.7524 84.5885 89.106 85.3906C90.5096 86.1426 91.8381 86.5186 93.0913 86.5186C93.2918 86.7191 93.3921 87.1702 93.3921 87.8721C93.3921 88.4736 93.2918 88.9749 93.0913 89.376C92.7404 89.4261 92.3394 89.4512 91.8882 89.4512C91.4871 89.5013 91.0109 89.5264 90.4595 89.5264ZM63.9155 62.832H65.9458C67.9009 62.832 69.4048 61.9798 70.4575 60.2754C71.5604 58.571 72.1118 56.3151 72.1118 53.5078C72.1118 46.8405 69.7808 43.5068 65.1187 43.5068C63.3641 43.5068 62.2111 43.7074 61.6597 44.1084C61.0581 44.5596 60.7573 47.016 60.7573 51.4775V59.5986C60.7573 61.0023 61.033 61.9046 61.5845 62.3057C62.186 62.6566 62.9631 62.832 63.9155 62.832ZM111.815 89.5264C108.757 89.5264 105.925 88.7493 103.318 87.1953C100.761 85.6413 98.7059 83.5609 97.1519 80.9541C95.6479 78.3473 94.896 75.4899 94.896 72.3818C94.896 69.1735 95.5728 66.291 96.9263 63.7344C98.3299 61.1777 100.26 59.1475 102.716 57.6436C105.173 56.1396 108.005 55.3877 111.213 55.3877C114.372 55.3877 117.054 56.1396 119.259 57.6436C121.515 59.0973 123.22 60.9271 124.373 63.1328C125.576 65.2884 126.177 67.4691 126.177 69.6748C126.177 70.8278 125.927 71.5798 125.425 71.9307C124.974 72.2816 124.047 72.457 122.643 72.457H105.649C105.348 72.457 105.198 72.6325 105.198 72.9834C105.198 74.7881 105.524 76.4925 106.175 78.0967C106.877 79.7008 107.88 81.0042 109.183 82.0068C110.537 83.0094 112.166 83.5107 114.071 83.5107C115.775 83.5107 117.354 83.2601 118.808 82.7588C119.811 82.458 120.588 82.1823 121.139 81.9316C121.691 81.681 122.192 81.4053 122.643 81.1045C123.144 80.7536 123.721 80.3275 124.373 79.8262C124.824 80.0267 125.049 80.5029 125.049 81.2549C125.049 81.9066 124.949 82.4079 124.749 82.7588C124.448 83.5609 123.646 84.4883 122.342 85.541C121.089 86.5938 119.535 87.5212 117.68 88.3232C115.875 89.1253 113.92 89.5264 111.815 89.5264ZM105.724 68.3213H115.274C115.976 68.3213 116.327 67.8451 116.327 66.8926C116.327 64.9876 115.8 63.2832 114.748 61.7793C113.745 60.2754 112.442 59.5234 110.837 59.5234C109.384 59.5234 108.231 60.0498 107.378 61.1025C106.576 62.1051 106 63.2331 105.649 64.4863C105.348 65.7396 105.198 66.7673 105.198 67.5693C105.198 68.0706 105.373 68.3213 105.724 68.3213ZM130.539 105.393C130.338 105.192 130.238 104.691 130.238 103.889C130.238 103.036 130.338 102.61 130.539 102.61C130.94 102.61 131.516 102.485 132.268 102.234C133.02 102.034 133.722 101.783 134.374 101.482C135.025 101.182 135.376 100.931 135.426 100.73C135.777 99.3268 135.953 97.4219 135.953 95.0156V68.6221C135.953 65.8148 135.501 63.9349 134.599 62.9824C134.198 62.4811 133.647 62.1302 132.945 61.9297C132.293 61.7292 131.717 61.6038 131.215 61.5537C130.714 61.4535 130.463 61.3532 130.463 61.2529C130.463 59.4984 130.589 58.6211 130.839 58.6211C132.393 58.6211 134.173 58.4456 136.178 58.0947C138.183 57.6937 140.439 57.1423 142.946 56.4404C144.45 55.9391 145.277 55.6885 145.427 55.6885C145.728 55.6885 145.878 56.0143 145.878 56.666C145.878 56.8164 145.853 57.0169 145.803 57.2676C145.803 57.4681 145.778 57.7188 145.728 58.0195C147.884 56.3151 150.19 55.4629 152.646 55.4629C155.854 55.4629 158.687 56.2399 161.143 57.7939C163.65 59.2979 165.605 61.3031 167.008 63.8096C168.462 66.3161 169.189 69.0231 169.189 71.9307C169.189 75.6403 168.362 78.8236 166.708 81.4805C165.103 84.0872 162.873 86.0924 160.015 87.4961C157.208 88.8997 154 89.6016 150.39 89.6016C149.187 89.6016 148.184 89.4762 147.382 89.2256C146.58 89.0251 146.129 88.9248 146.029 88.9248C145.828 88.9248 145.728 89.3258 145.728 90.1279V93.8877C145.728 97.1963 145.903 99.4772 146.254 100.73C146.355 100.931 146.731 101.182 147.382 101.482C148.034 101.783 148.711 102.034 149.413 102.234C150.165 102.485 150.691 102.61 150.992 102.61C151.092 102.61 151.167 102.811 151.217 103.212C151.267 103.613 151.292 104.039 151.292 104.49C151.292 104.941 151.242 105.242 151.142 105.393C150.841 105.393 150.265 105.342 149.413 105.242C148.56 105.192 147.558 105.117 146.405 105.017C145.302 104.966 144.249 104.916 143.247 104.866C142.244 104.816 141.442 104.791 140.84 104.791C140.239 104.791 139.412 104.816 138.359 104.866C137.356 104.916 136.304 104.966 135.201 105.017C134.098 105.117 133.12 105.192 132.268 105.242C131.416 105.342 130.839 105.393 130.539 105.393ZM151.593 85.541C156.105 85.541 158.361 81.8314 158.361 74.4121C158.361 64.6868 156.08 59.8242 151.518 59.8242C149.764 59.8242 148.36 60.3506 147.307 61.4033C146.254 62.4561 145.728 63.7845 145.728 65.3887V79.6006C145.728 81.5055 146.355 82.9844 147.608 84.0371C148.861 85.0397 150.19 85.541 151.593 85.541ZM190.695 89.5264C187.436 89.5264 184.454 88.7744 181.747 87.2705C179.09 85.7165 176.959 83.6611 175.355 81.1045C173.801 78.4977 173.024 75.6152 173.024 72.457C173.024 69.2487 173.801 66.3662 175.355 63.8096C176.959 61.2529 179.09 59.2227 181.747 57.7188C184.454 56.1647 187.436 55.3877 190.695 55.3877C194.003 55.3877 196.986 56.1647 199.643 57.7188C202.3 59.2227 204.405 61.2529 205.959 63.8096C207.564 66.3662 208.366 69.2487 208.366 72.457C208.366 75.6152 207.589 78.4977 206.035 81.1045C204.481 83.6611 202.35 85.7165 199.643 87.2705C196.986 88.7744 194.003 89.5264 190.695 89.5264ZM191.447 85.3906C192.85 85.3906 194.003 84.9144 194.906 83.9619C195.808 83.0094 196.46 81.7562 196.861 80.2021C197.312 78.598 197.538 76.8936 197.538 75.0889C197.538 64.7119 194.906 59.5234 189.642 59.5234C188.238 59.5234 187.085 60.0247 186.183 61.0273C185.331 62.0299 184.704 63.3333 184.303 64.9375C183.902 66.5417 183.702 68.2712 183.702 70.126C183.702 80.3024 186.283 85.3906 191.447 85.3906Z" fill="white"/>
<path d="M212.652 89.3008C212.451 89.1003 212.351 88.6742 212.351 88.0225C212.351 87.0199 212.401 86.5186 212.501 86.5186C212.903 86.5186 213.479 86.4434 214.231 86.293C215.033 86.0924 215.76 85.8418 216.412 85.541C217.063 85.2402 217.439 84.9645 217.54 84.7139C217.89 83.4606 218.066 81.4303 218.066 78.623V49.8984C218.066 46.7402 217.89 44.7852 217.54 44.0332C217.389 43.6322 216.988 43.2812 216.336 42.9805C215.735 42.6797 215.083 42.4541 214.381 42.3037C213.73 42.1032 213.203 42.0029 212.802 42.0029C212.602 42.0029 212.501 41.5016 212.501 40.499C212.501 39.7471 212.552 39.321 212.652 39.2207L223.104 39.6719C223.756 39.722 224.984 39.6969 226.789 39.5967C228.643 39.4964 231.075 39.3711 234.083 39.2207C234.233 39.4212 234.308 39.9476 234.308 40.7998C234.308 41.6019 234.208 42.0029 234.007 42.0029C233.707 42.0029 233.18 42.1032 232.428 42.3037C231.726 42.5042 231.025 42.7549 230.323 43.0557C229.671 43.3063 229.295 43.557 229.195 43.8076C228.794 44.9105 228.593 47.041 228.593 50.1992V60.877L228.744 61.1025L237.767 61.2529C238.469 61.2529 239.547 61.2529 241 61.2529C242.454 61.2028 244.309 61.1527 246.565 61.1025C246.665 61.0023 246.715 60.902 246.715 60.8018V49.8984C246.715 47.1914 246.54 45.2113 246.189 43.958C246.089 43.6572 245.713 43.3564 245.061 43.0557C244.459 42.7549 243.808 42.5042 243.106 42.3037C242.404 42.1032 241.853 42.0029 241.452 42.0029C241.351 42.0029 241.251 41.8024 241.151 41.4014C241.101 41.0003 241.101 40.5742 241.151 40.123C241.201 39.6217 241.276 39.321 241.376 39.2207L252.581 39.6719C253.333 39.6719 256.716 39.5215 262.732 39.2207C262.882 39.6719 262.958 40.123 262.958 40.5742C262.958 41.5267 262.832 42.0029 262.582 42.0029C262.281 42.0029 261.754 42.1032 261.002 42.3037C260.301 42.5042 259.624 42.7549 258.972 43.0557C258.32 43.3063 257.944 43.557 257.844 43.8076C257.644 44.5596 257.493 45.4619 257.393 46.5146C257.293 47.5674 257.243 48.7956 257.243 50.1992V78.3223C257.243 79.6758 257.293 80.8789 257.393 81.9316C257.493 82.9844 257.644 83.9118 257.844 84.7139C257.944 84.9144 258.295 85.165 258.897 85.4658C259.549 85.7165 260.225 85.9421 260.927 86.1426C261.679 86.3431 262.206 86.4434 262.506 86.4434C262.707 86.4434 262.807 86.9697 262.807 88.0225C262.807 88.4235 262.732 88.8496 262.582 89.3008C262.381 89.3008 261.905 89.2757 261.153 89.2256C260.401 89.1755 259.398 89.1003 258.145 89C256.892 88.8997 255.789 88.8245 254.836 88.7744C253.884 88.7243 253.082 88.6992 252.43 88.6992C251.778 88.6992 250.876 88.7243 249.723 88.7744C248.62 88.8245 247.467 88.8997 246.264 89C245.111 89.0501 244.058 89.1003 243.106 89.1504C242.153 89.2507 241.527 89.3008 241.226 89.3008C241.126 89.1504 241.051 88.8496 241 88.3984C240.95 87.9473 240.95 87.5212 241 87.1201C241.101 86.7191 241.201 86.5186 241.301 86.5186C241.702 86.5186 242.279 86.4183 243.031 86.2178C243.783 86.0173 244.485 85.7666 245.136 85.4658C245.788 85.1149 246.164 84.8141 246.264 84.5635C246.565 83.4105 246.715 81.4303 246.715 78.623V66.0654L246.565 65.7646L237.767 65.6143C231.551 65.6644 228.443 65.7396 228.443 65.8398L228.593 65.9902V78.3223C228.593 79.6257 228.643 80.8037 228.744 81.8564C228.844 82.9092 228.994 83.8366 229.195 84.6387C229.295 84.8392 229.646 85.0898 230.248 85.3906C230.899 85.6914 231.576 85.9671 232.278 86.2178C233.03 86.4183 233.556 86.5186 233.857 86.5186C234.057 86.5186 234.158 86.8945 234.158 87.6465C234.208 88.3984 234.158 88.9499 234.007 89.3008C231.551 89.1504 229.471 89.0251 227.766 88.9248C226.112 88.7744 224.608 88.6992 223.254 88.6992C221.6 88.6992 219.921 88.7744 218.216 88.9248C216.562 89.0251 214.707 89.1504 212.652 89.3008ZM294.088 89.376C293.788 89.376 293.637 88.9248 293.637 88.0225V85.2402C293.637 84.8392 293.537 84.7389 293.336 84.9395C292.284 86.0423 290.73 87.0449 288.674 87.9473C286.669 88.8496 284.488 89.3008 282.132 89.3008C280.177 89.3008 278.448 88.6992 276.944 87.4961C275.49 86.293 274.362 84.6888 273.56 82.6836C272.758 80.6283 272.357 78.3724 272.357 75.916V68.6221C272.357 65.8148 271.906 63.9349 271.003 62.9824C270.602 62.4811 270.051 62.1302 269.349 61.9297C268.697 61.7292 268.121 61.6038 267.62 61.5537C267.118 61.4535 266.868 61.3532 266.868 61.2529C266.868 59.4984 266.993 58.6211 267.244 58.6211C267.695 58.6211 268.522 58.5208 269.725 58.3203C270.978 58.1198 272.332 57.8942 273.786 57.6436C275.239 57.3428 276.618 57.042 277.921 56.7412C279.275 56.3903 280.303 56.1146 281.004 55.9141C281.155 55.8639 281.28 55.8138 281.38 55.7637C281.531 55.7135 281.681 55.6885 281.832 55.6885C282.082 55.6885 282.333 55.8639 282.583 56.2148C282.834 56.5156 282.959 56.7663 282.959 56.9668C282.709 59.1725 282.508 60.902 282.358 62.1553C282.208 63.4085 282.132 64.1855 282.132 64.4863V72.5322C282.132 76.4424 282.634 79.1995 283.636 80.8037C284.639 82.3577 286.318 83.1348 288.674 83.1348C290.379 83.1348 291.657 82.7588 292.509 82.0068C293.361 81.2048 293.788 80.3275 293.788 79.375V68.6221C293.788 65.8148 293.336 63.9349 292.434 62.9824C292.033 62.4811 291.482 62.1302 290.78 61.9297C290.128 61.7292 289.552 61.6038 289.05 61.5537C288.549 61.4535 288.298 61.3532 288.298 61.2529C288.298 59.4984 288.424 58.6211 288.674 58.6211C289.125 58.6211 289.953 58.5208 291.156 58.3203C292.409 58.1198 293.763 57.8942 295.216 57.6436C296.67 57.3428 298.049 57.042 299.352 56.7412C300.706 56.3903 301.733 56.1146 302.435 55.9141L303.262 55.6885C303.513 55.6885 303.764 55.8639 304.014 56.2148C304.265 56.5156 304.39 56.7663 304.39 56.9668C304.139 59.1725 303.939 60.902 303.789 62.1553C303.638 63.4085 303.563 64.1605 303.563 64.4111V79.1494C303.563 81.8063 303.814 83.3854 304.315 83.8867C304.566 84.1374 304.967 84.3379 305.518 84.4883C306.069 84.5885 306.621 84.6387 307.172 84.6387H307.924C308.125 84.6888 308.225 84.8893 308.225 85.2402C308.225 86.694 308.075 87.4209 307.774 87.4209C304.666 87.7217 302.059 88.0225 299.954 88.3232C297.898 88.624 296.294 88.8997 295.141 89.1504L294.088 89.376ZM319.204 89.6768C319.103 89.6768 318.853 89.5514 318.452 89.3008C318.051 89.1003 317.675 88.8496 317.324 88.5488C316.973 88.248 316.797 88.0225 316.797 87.8721C316.797 87.5713 316.898 86.6689 317.098 85.165C317.299 83.6611 317.399 81.7311 317.399 79.375V49.0713C317.399 46.9658 317.249 45.1611 316.948 43.6572C316.747 42.8551 315.444 42.4541 313.038 42.4541H312.361C312.06 42.4541 311.91 41.9528 311.91 40.9502C311.91 40.098 312.06 39.6719 312.361 39.6719C315.268 39.4212 318 38.9951 320.557 38.3936C323.164 37.792 325.019 37.3158 326.122 36.9648L326.874 36.7393H327.024C327.224 36.7393 327.425 36.8896 327.625 37.1904C327.826 37.4912 327.951 37.7669 328.001 38.0176C327.45 40.3737 327.174 42.9053 327.174 45.6123V56.5908C327.174 57.0921 327.199 57.418 327.25 57.5684C327.3 57.6686 327.425 57.6686 327.625 57.5684C329.48 56.1146 331.661 55.3877 334.167 55.3877C337.175 55.3877 339.932 56.1396 342.439 57.6436C344.945 59.0973 346.951 61.0775 348.455 63.584C349.958 66.0905 350.71 68.8978 350.71 72.0059C350.71 75.3145 349.908 78.2972 348.304 80.9541C346.75 83.611 344.645 85.7165 341.988 87.2705C339.331 88.8245 336.348 89.6016 333.04 89.6016C331.235 89.6016 329.806 89.4762 328.753 89.2256C327.751 89.0251 326.874 88.8245 326.122 88.624C325.37 88.3734 324.442 88.248 323.339 88.248C322.587 88.248 321.81 88.4987 321.008 89C320.206 89.4512 319.605 89.6768 319.204 89.6768ZM333.265 85.541C335.521 85.541 337.175 84.5384 338.228 82.5332C339.331 80.4779 339.882 77.7959 339.882 74.4873C339.882 64.8122 337.702 59.9746 333.34 59.9746C331.385 59.9746 329.856 60.526 328.753 61.6289C327.701 62.7318 327.174 63.8848 327.174 65.0879V79.2998C327.174 81.305 327.751 82.859 328.904 83.9619C330.057 85.0146 331.511 85.541 333.265 85.541Z" fill="#2F00BC"/>
</svg>
